<svg width="75" height="74" viewBox="0 0 75 74" fill="none" xmlns="http://www.w3.org/2000/svg">
<g filter="url(#filter0_dd_71_139)">
<rect x="14.4" y="14" width="46" height="46" rx="15" fill="#1A1A1A"/>
<rect x="14.9" y="14.5" width="45" height="45" rx="14.5" stroke="#3DCFB6"/>
<path d="M52.4 37.0911C52.4 28.8069 45.6842 22.0911 37.4 22.0911C29.1158 22.0911 22.4 28.8069 22.4 37.0911C22.4 44.578 27.8853 50.7837 35.0563 51.9089V41.4271H31.2477V37.0911H35.0563V33.7864C35.0563 30.0271 37.2957 27.9505 40.7221 27.9505C42.3631 27.9505 44.0797 28.2435 44.0797 28.2435V31.9349H42.1883C40.3249 31.9349 39.7438 33.0912 39.7438 34.2775V37.0911H43.9039L43.2389 41.4271H39.7438V51.9089C46.9147 50.7837 52.4 44.5781 52.4 37.0911Z" fill="#1877F2"/>
</g>
<defs>
<filter id="filter0_dd_71_139" x="0.400024" y="0" width="73.9999" height="74" filterUnits="userSpaceOnUse" color-interpolation-filters="sRGB">
<feFlood flood-opacity="0" result="BackgroundImageFix"/>
<feColorMatrix in="SourceAlpha" type="matrix" values="0 0 0 0 0 0 0 0 0 0 0 0 0 0 0 0 0 0 127 0" result="hardAlpha"/>
<feOffset dx="4" dy="4"/>
<feGaussianBlur stdDeviation="5"/>
<feComposite in2="hardAlpha" operator="out"/>
<feColorMatrix type="matrix" values="0 0 0 0 0 0 0 0 0 0 0 0 0 0 0 0 0 0 0.8 0"/>
<feBlend mode="normal" in2="BackgroundImageFix" result="effect1_dropShadow_71_139"/>
<feColorMatrix in="SourceAlpha" type="matrix" values="0 0 0 0 0 0 0 0 0 0 0 0 0 0 0 0 0 0 127 0" result="hardAlpha"/>
<feOffset dx="-4" dy="-4"/>
<feGaussianBlur stdDeviation="5"/>
<feComposite in2="hardAlpha" operator="out"/>
<feColorMatrix type="matrix" values="0 0 0 0 0.239216 0 0 0 0 0.811765 0 0 0 0 0.713726 0 0 0 0.5 0"/>
<feBlend mode="normal" in2="effect1_dropShadow_71_139" result="effect2_dropShadow_71_139"/>
<feBlend mode="normal" in="SourceGraphic" in2="effect2_dropShadow_71_139" result="shape"/>
</filter>
</defs>
</svg>
