<svg width="74" height="74" viewBox="0 0 74 74" fill="none" xmlns="http://www.w3.org/2000/svg">
<g filter="url(#filter0_dd_71_130)">
<rect x="14" y="14" width="46" height="46" rx="15" fill="#1A1A1A"/>
<rect x="14.5" y="14.5" width="45" height="45" rx="14.5" stroke="#3DCFB6"/>
<path d="M46.9375 48.25C44.3333 48.25 41.7604 47.6825 39.2188 46.5475C36.6771 45.4125 34.3646 43.8029 32.2813 41.7188C30.1979 39.6346 28.5887 37.3221 27.4537 34.7812C26.3187 32.2404 25.7508 29.6675 25.75 27.0625C25.75 26.6875 25.875 26.375 26.125 26.125C26.375 25.875 26.6875 25.75 27.0625 25.75H32.125C32.4167 25.75 32.6771 25.8492 32.9063 26.0475C33.1354 26.2458 33.2708 26.48 33.3125 26.75L34.125 31.125C34.1667 31.4583 34.1562 31.7396 34.0938 31.9688C34.0312 32.1979 33.9167 32.3958 33.75 32.5625L30.7188 35.625C31.1354 36.3958 31.63 37.1404 32.2025 37.8588C32.775 38.5771 33.4054 39.27 34.0938 39.9375C34.7396 40.5833 35.4167 41.1825 36.125 41.735C36.8333 42.2875 37.5833 42.7925 38.375 43.25L41.3125 40.3125C41.5 40.125 41.745 39.9846 42.0475 39.8912C42.35 39.7979 42.6467 39.7717 42.9375 39.8125L47.25 40.6875C47.5417 40.7708 47.7812 40.9221 47.9688 41.1412C48.1562 41.3604 48.25 41.605 48.25 41.875V46.9375C48.25 47.3125 48.125 47.625 47.875 47.875C47.625 48.125 47.3125 48.25 46.9375 48.25Z" fill="#3DCFB6"/>
</g>
<defs>
<filter id="filter0_dd_71_130" x="0" y="0" width="74" height="74" filterUnits="userSpaceOnUse" color-interpolation-filters="sRGB">
<feFlood flood-opacity="0" result="BackgroundImageFix"/>
<feColorMatrix in="SourceAlpha" type="matrix" values="0 0 0 0 0 0 0 0 0 0 0 0 0 0 0 0 0 0 127 0" result="hardAlpha"/>
<feOffset dx="4" dy="4"/>
<feGaussianBlur stdDeviation="5"/>
<feComposite in2="hardAlpha" operator="out"/>
<feColorMatrix type="matrix" values="0 0 0 0 0 0 0 0 0 0 0 0 0 0 0 0 0 0 0.8 0"/>
<feBlend mode="normal" in2="BackgroundImageFix" result="effect1_dropShadow_71_130"/>
<feColorMatrix in="SourceAlpha" type="matrix" values="0 0 0 0 0 0 0 0 0 0 0 0 0 0 0 0 0 0 127 0" result="hardAlpha"/>
<feOffset dx="-4" dy="-4"/>
<feGaussianBlur stdDeviation="5"/>
<feComposite in2="hardAlpha" operator="out"/>
<feColorMatrix type="matrix" values="0 0 0 0 0.239216 0 0 0 0 0.811765 0 0 0 0 0.713726 0 0 0 0.5 0"/>
<feBlend mode="normal" in2="effect1_dropShadow_71_130" result="effect2_dropShadow_71_130"/>
<feBlend mode="normal" in="SourceGraphic" in2="effect2_dropShadow_71_130" result="shape"/>
</filter>
</defs>
</svg>
