<svg width="75" height="74" viewBox="0 0 75 74" fill="none" xmlns="http://www.w3.org/2000/svg">
<g filter="url(#filter0_dd_71_150)">
<rect x="14.8" y="14" width="46" height="46" rx="15" fill="#1A1A1A" shape-rendering="crispEdges"/>
<rect x="15.3" y="14.5" width="45" height="45" rx="14.5" stroke="#3DCFB6" shape-rendering="crispEdges"/>
<path opacity="0.3" d="M47.8001 32L37.8 38.25L27.8 32V44.5H47.8001V32ZM47.8001 29.5H27.8L37.8 35.7375L47.8001 29.5Z" fill="black"/>
<path d="M27.8 47H47.8C49.175 47 50.3 45.875 50.3 44.5V29.5C50.3 28.125 49.175 27 47.8 27H27.8C26.425 27 25.3 28.125 25.3 29.5V44.5C25.3 45.875 26.425 47 27.8 47ZM47.8 29.5L37.8 35.7375L27.8 29.5H47.8ZM27.8 32L37.8 38.25L47.8 32V44.5H27.8V32Z" fill="#3DCFB6"/>
</g>
<defs>
<filter id="filter0_dd_71_150" x="0.800049" y="0" width="74" height="74" filterUnits="userSpaceOnUse" color-interpolation-filters="sRGB">
<feFlood flood-opacity="0" result="BackgroundImageFix"/>
<feColorMatrix in="SourceAlpha" type="matrix" values="0 0 0 0 0 0 0 0 0 0 0 0 0 0 0 0 0 0 127 0" result="hardAlpha"/>
<feOffset dx="4" dy="4"/>
<feGaussianBlur stdDeviation="5"/>
<feComposite in2="hardAlpha" operator="out"/>
<feColorMatrix type="matrix" values="0 0 0 0 0 0 0 0 0 0 0 0 0 0 0 0 0 0 0.8 0"/>
<feBlend mode="normal" in2="BackgroundImageFix" result="effect1_dropShadow_71_150"/>
<feColorMatrix in="SourceAlpha" type="matrix" values="0 0 0 0 0 0 0 0 0 0 0 0 0 0 0 0 0 0 127 0" result="hardAlpha"/>
<feOffset dx="-4" dy="-4"/>
<feGaussianBlur stdDeviation="5"/>
<feComposite in2="hardAlpha" operator="out"/>
<feColorMatrix type="matrix" values="0 0 0 0 0.239216 0 0 0 0 0.811765 0 0 0 0 0.713726 0 0 0 0.5 0"/>
<feBlend mode="normal" in2="effect1_dropShadow_71_150" result="effect2_dropShadow_71_150"/>
<feBlend mode="normal" in="SourceGraphic" in2="effect2_dropShadow_71_150" result="shape"/>
</filter>
</defs>
</svg>
