<svg width="74" height="74" viewBox="0 0 74 74" fill="none" xmlns="http://www.w3.org/2000/svg">
<g filter="url(#filter0_dd_71_144)">
<rect x="14" y="14" width="46" height="46" rx="15" fill="#1A1A1A"/>
<rect x="14.5" y="14.5" width="45" height="45" rx="14.5" stroke="#3DCFB6"/>
<path d="M44.9688 22H29.0312C25.148 22 22 25.148 22 29.0312V44.9688C22 48.852 25.148 52 29.0312 52H44.9688C48.852 52 52 48.852 52 44.9688V29.0312C52 25.148 48.852 22 44.9688 22Z" fill="white"/>
<path d="M44.9688 22H29.0312C25.148 22 22 25.148 22 29.0312V44.9688C22 48.852 25.148 52 29.0312 52H44.9688C48.852 52 52 48.852 52 44.9688V29.0312C52 25.148 48.852 22 44.9688 22Z" fill="#0A66C2"/>
<path d="M43.6463 47.51H47.0764C47.2007 47.51 47.3199 47.4606 47.4078 47.3727C47.4957 47.2848 47.5451 47.1656 47.5451 47.0413L47.5469 39.7942C47.5469 36.0064 46.7307 33.0948 42.3041 33.0948C40.6214 33.0323 39.0346 33.8997 38.1783 35.3481C38.1741 35.3552 38.1678 35.3606 38.1602 35.3637C38.1526 35.3668 38.1442 35.3673 38.1363 35.3651C38.1284 35.363 38.1214 35.3583 38.1164 35.3519C38.1114 35.3454 38.1087 35.3374 38.1086 35.3293V33.9133C38.1086 33.789 38.0592 33.6697 37.9713 33.5818C37.8834 33.4939 37.7642 33.4445 37.6398 33.4445H34.3847C34.2604 33.4445 34.1412 33.4939 34.0533 33.5818C33.9654 33.6697 33.916 33.789 33.916 33.9133V47.0406C33.916 47.1649 33.9654 47.2842 34.0533 47.3721C34.1412 47.46 34.2604 47.5094 34.3847 47.5094H37.8146C37.9389 47.5094 38.0581 47.46 38.146 47.3721C38.2339 47.2842 38.2833 47.1649 38.2833 47.0406V40.5516C38.2833 38.7168 38.6314 36.9399 40.9061 36.9399C43.1485 36.9399 43.1775 39.0394 43.1775 40.6704V47.0412C43.1775 47.1655 43.2269 47.2848 43.3148 47.3727C43.4027 47.4606 43.522 47.51 43.6463 47.51ZM26.4531 28.9877C26.4531 30.378 27.5977 31.522 28.9881 31.522C30.3782 31.5218 31.5221 30.3771 31.5221 28.9871C31.5218 27.597 30.3779 26.4531 28.9877 26.4531C27.5971 26.4531 26.4531 27.5973 26.4531 28.9877ZM27.2686 47.51H30.703C30.8274 47.51 30.9466 47.4606 31.0345 47.3727C31.1224 47.2848 31.1718 47.1655 31.1718 47.0412V33.9133C31.1718 33.789 31.1224 33.6697 31.0345 33.5818C30.9466 33.4939 30.8274 33.4445 30.703 33.4445H27.2686C27.1443 33.4445 27.0251 33.4939 26.9372 33.5818C26.8493 33.6697 26.7999 33.789 26.7999 33.9133V47.0412C26.7999 47.1655 26.8493 47.2848 26.9372 47.3727C27.0251 47.4606 27.1443 47.51 27.2686 47.51Z" fill="white"/>
</g>
<defs>
<filter id="filter0_dd_71_144" x="0" y="0" width="74" height="74" filterUnits="userSpaceOnUse" color-interpolation-filters="sRGB">
<feFlood flood-opacity="0" result="BackgroundImageFix"/>
<feColorMatrix in="SourceAlpha" type="matrix" values="0 0 0 0 0 0 0 0 0 0 0 0 0 0 0 0 0 0 127 0" result="hardAlpha"/>
<feOffset dx="4" dy="4"/>
<feGaussianBlur stdDeviation="5"/>
<feComposite in2="hardAlpha" operator="out"/>
<feColorMatrix type="matrix" values="0 0 0 0 0 0 0 0 0 0 0 0 0 0 0 0 0 0 0.8 0"/>
<feBlend mode="normal" in2="BackgroundImageFix" result="effect1_dropShadow_71_144"/>
<feColorMatrix in="SourceAlpha" type="matrix" values="0 0 0 0 0 0 0 0 0 0 0 0 0 0 0 0 0 0 127 0" result="hardAlpha"/>
<feOffset dx="-4" dy="-4"/>
<feGaussianBlur stdDeviation="5"/>
<feComposite in2="hardAlpha" operator="out"/>
<feColorMatrix type="matrix" values="0 0 0 0 0.239216 0 0 0 0 0.811765 0 0 0 0 0.713726 0 0 0 0.5 0"/>
<feBlend mode="normal" in2="effect1_dropShadow_71_144" result="effect2_dropShadow_71_144"/>
<feBlend mode="normal" in="SourceGraphic" in2="effect2_dropShadow_71_144" result="shape"/>
</filter>
</defs>
</svg>
