<svg width="57" height="66" viewBox="0 0 57 66" fill="none" xmlns="http://www.w3.org/2000/svg">
<path d="M49.2413 0.250183V8.28661H30.5505V65.7365H20.4593V42.3577H20.4555V39.7664H10.0332V51.6841H0.48999V20.269H10.0332V31.73H20.4555V8.28661H2.11097V0.250183H49.2413Z" fill="#3DCFB6"/>
<path d="M20.4592 42.3577H20.4554V51.6841H20.4592V42.3577Z" fill="#3DCFB6"/>
<path d="M56.9999 33.058H49.2869C49.2869 29.2795 47.7496 26.8404 44.8616 26.8404C41.4255 26.8404 40.109 29.9492 40.109 34.4469V37.51C40.109 42.0077 41.4978 45.1165 44.7893 45.1165C47.9703 45.1165 49.5419 42.8676 49.5419 39.0891H56.9999C56.9999 48.1301 52.5746 53.0083 44.8996 53.0083C36.3076 53.0083 31.848 47.2207 31.848 35.9766C31.848 24.7324 36.3076 18.9448 44.8996 18.9448C52.2093 18.9448 56.9999 23.8724 56.9999 33.058Z" fill="#3DCFB6"/>
</svg>
