<svg width="75" height="74" viewBox="0 0 75 74" fill="none" xmlns="http://www.w3.org/2000/svg">
<g filter="url(#filter0_dd_71_149)">
<rect x="14.6" y="14" width="46" height="46" rx="15" fill="#1A1A1A" shape-rendering="crispEdges"/>
<rect x="15.1" y="14.5" width="45" height="45" rx="14.5" stroke="#3DCFB6" shape-rendering="crispEdges"/>
<g clip-path="url(#clip0_71_149)">
<path d="M23.2402 36.8205C23.2395 39.3411 23.9033 41.8022 25.1654 43.9715L23.1195 51.3834L30.7639 49.3946C32.8782 50.5367 35.2472 51.1351 37.6545 51.1353H37.6608C45.6079 51.1353 52.077 44.7186 52.0804 36.8318C52.0819 33.01 50.5833 29.4163 47.8606 26.7126C45.1383 24.0091 41.5178 22.5194 37.6602 22.5177C29.7122 22.5177 23.2436 28.934 23.2403 36.8205" fill="url(#paint0_linear_71_149)"/>
<path d="M22.7254 36.8158C22.7245 39.4271 23.4121 41.9763 24.7192 44.2233L22.6 51.9008L30.5185 49.8407C32.7002 51.021 35.1567 51.6434 37.6563 51.6443H37.6628C45.895 51.6443 52.5965 44.9969 52.6 36.8277C52.6014 32.8686 51.0489 29.1457 48.2289 26.3451C45.4085 23.5449 41.6585 22.0016 37.6628 22C29.4292 22 22.7286 28.6465 22.7254 36.8158ZM27.4411 43.8363L27.1454 43.3706C25.9026 41.4097 25.2465 39.1436 25.2475 36.8167C25.2501 30.0266 30.8193 24.5023 37.6675 24.5023C40.9839 24.5037 44.1006 25.7865 46.4448 28.114C48.7889 30.4416 50.0788 33.5358 50.078 36.8267C50.0749 43.6169 44.5056 49.1419 37.6628 49.1419H37.6579C35.4298 49.1407 33.2446 48.547 31.3389 47.425L30.8854 47.1581L26.1864 48.3806L27.4411 43.8363Z" fill="url(#paint1_linear_71_149)"/>
<path d="M33.9294 30.6219C33.6498 30.0053 33.3555 29.9928 33.0896 29.982C32.8719 29.9727 32.623 29.9734 32.3743 29.9734C32.1254 29.9734 31.721 30.0663 31.3792 30.4367C31.037 30.8074 30.0728 31.7032 30.0728 33.5251C30.0728 35.3472 31.4102 37.1081 31.5967 37.3554C31.7833 37.6022 34.1787 41.4608 37.9722 42.9453C41.1251 44.1789 41.7667 43.9335 42.4509 43.8717C43.1353 43.81 44.6592 42.9761 44.9701 42.1113C45.2812 41.2467 45.2812 40.5055 45.1879 40.3506C45.0947 40.1963 44.8458 40.1036 44.4725 39.9185C44.0992 39.7333 42.2642 38.8374 41.9222 38.7137C41.58 38.5903 41.3312 38.5286 41.0823 38.8994C40.8334 39.2697 40.1187 40.1036 39.9008 40.3506C39.6832 40.5982 39.4653 40.629 39.0922 40.4437C38.7187 40.2579 37.5167 39.8674 36.0907 38.6058C34.9812 37.6242 34.2321 36.412 34.0144 36.0412C33.7966 35.671 33.991 35.4703 34.1782 35.2857C34.3459 35.1198 34.5515 34.8533 34.7383 34.6371C34.9244 34.4208 34.9865 34.2665 35.111 34.0196C35.2356 33.7724 35.1732 33.5561 35.0801 33.3708C34.9865 33.1856 34.2613 31.3541 33.9294 30.6219Z" fill="white"/>
</g>
</g>
<defs>
<filter id="filter0_dd_71_149" x="0.599976" y="0" width="74" height="74" filterUnits="userSpaceOnUse" color-interpolation-filters="sRGB">
<feFlood flood-opacity="0" result="BackgroundImageFix"/>
<feColorMatrix in="SourceAlpha" type="matrix" values="0 0 0 0 0 0 0 0 0 0 0 0 0 0 0 0 0 0 127 0" result="hardAlpha"/>
<feOffset dx="4" dy="4"/>
<feGaussianBlur stdDeviation="5"/>
<feComposite in2="hardAlpha" operator="out"/>
<feColorMatrix type="matrix" values="0 0 0 0 0 0 0 0 0 0 0 0 0 0 0 0 0 0 0.8 0"/>
<feBlend mode="normal" in2="BackgroundImageFix" result="effect1_dropShadow_71_149"/>
<feColorMatrix in="SourceAlpha" type="matrix" values="0 0 0 0 0 0 0 0 0 0 0 0 0 0 0 0 0 0 127 0" result="hardAlpha"/>
<feOffset dx="-4" dy="-4"/>
<feGaussianBlur stdDeviation="5"/>
<feComposite in2="hardAlpha" operator="out"/>
<feColorMatrix type="matrix" values="0 0 0 0 0.239216 0 0 0 0 0.811765 0 0 0 0 0.713726 0 0 0 0.5 0"/>
<feBlend mode="normal" in2="effect1_dropShadow_71_149" result="effect2_dropShadow_71_149"/>
<feBlend mode="normal" in="SourceGraphic" in2="effect2_dropShadow_71_149" result="shape"/>
</filter>
<linearGradient id="paint0_linear_71_149" x1="1471.16" y1="2909.09" x2="1471.16" y2="22.5177" gradientUnits="userSpaceOnUse">
<stop stop-color="#1FAF38"/>
<stop offset="1" stop-color="#60D669"/>
</linearGradient>
<linearGradient id="paint1_linear_71_149" x1="1522.6" y1="3012.08" x2="1522.6" y2="22" gradientUnits="userSpaceOnUse">
<stop stop-color="#F9F9F9"/>
<stop offset="1" stop-color="white"/>
</linearGradient>
<clipPath id="clip0_71_149">
<rect width="30" height="30" fill="white" transform="translate(22.6 22)"/>
</clipPath>
</defs>
</svg>
